<?xml version="1.0" encoding="utf-8"?>
<!-- Generator: Adobe Illustrator 16.0.3, SVG Export Plug-In . SVG Version: 6.00 Build 0)  -->
<!DOCTYPE svg PUBLIC "-//W3C//DTD SVG 1.1//EN" "http://www.w3.org/Graphics/SVG/1.1/DTD/svg11.dtd">
<svg version="1.1" id="圖層_1" xmlns="http://www.w3.org/2000/svg" xmlns:xlink="http://www.w3.org/1999/xlink" x="0px" y="0px"
	 width="200px" height="200px" viewBox="0 0 200 200" enable-background="new 0 0 200 200" xml:space="preserve">
<path fill="none" stroke="#FFFFFF" stroke-width="12" stroke-miterlimit="10" d="M190.618,99.998
	c0,49.967-40.507,90.479-90.476,90.479S9.665,149.965,9.665,99.998c0-49.969,40.509-90.478,90.478-90.478
	C150.111,9.52,190.618,50.029,190.618,99.998z"/>
<circle fill="#FFFFFF" cx="100.141" cy="62.608" r="30.123"/>
<path fill="#FFFFFF" d="M157.084,159.734c0,16.67-16.322,30.186-36.462,30.186H79.663c-20.139,0-36.464-13.516-36.464-30.186
	v-23.946c0-16.671,16.325-34.667,36.464-34.667h40.959c20.14,0,36.462,17.996,36.462,34.667V159.734z"/>
</svg>
