<?xml version="1.0" encoding="utf-8"?>
<!-- Generator: Adobe Illustrator 16.0.3, SVG Export Plug-In . SVG Version: 6.00 Build 0)  -->
<!DOCTYPE svg PUBLIC "-//W3C//DTD SVG 1.1//EN" "http://www.w3.org/Graphics/SVG/1.1/DTD/svg11.dtd">
<svg version="1.1" id="圖層_1" xmlns="http://www.w3.org/2000/svg" xmlns:xlink="http://www.w3.org/1999/xlink" x="0px" y="0px"
	 width="200px" height="200px" viewBox="0 0 200 200" enable-background="new 0 0 200 200" xml:space="preserve">
<g>
	<path fill="none" stroke="#FFFFFF" stroke-width="12" stroke-miterlimit="10" d="M190.277,99.998
		c0,49.967-40.508,90.479-90.477,90.479S9.323,149.965,9.323,99.998c0-49.969,40.508-90.478,90.478-90.478
		C149.771,9.521,190.277,50.029,190.277,99.998z"/>
	<g>
		<path fill="#FFFFFF" d="M106.382,108.962v18.424c9.527-0.751,14.414-3.886,14.414-9.149
			C120.796,115.729,115.909,112.721,106.382,108.962z"/>
		<path fill="#FFFFFF" d="M81.94,78.752c0,2.506,4.762,5.515,14.414,8.773V72.484C86.702,72.736,81.94,74.867,81.94,78.752z"/>
		<path fill="#FFFFFF" d="M99.8,26.048c-40.84,0-73.951,33.109-73.951,73.95S58.959,173.95,99.8,173.95
			c40.843,0,73.953-33.111,73.953-73.952S140.643,26.048,99.8,26.048z M106.382,143.432v4.514c0,3.257-1.756,5.012-5.015,5.012
			c-3.384,0-5.013-1.755-5.013-5.012v-4.514c-10.403-1.004-19.553-4.263-27.325-10.154c-5.893-4.262-8.775-8.021-8.775-11.28
			c0-2.384,0.752-4.513,2.507-6.269c1.504-1.754,3.635-2.631,6.143-2.631c1.504,0,5.139,2.006,11.155,5.892
			c6.519,4.261,11.907,6.893,16.296,7.896V105.45c-1.253-0.374-2.633-0.88-4.136-1.378c-8.775-2.758-15.041-5.391-18.929-7.897
			c-7.018-4.387-10.403-9.903-10.403-16.419c0-8.148,3.636-14.29,11.157-18.427c5.64-3.008,13.037-4.763,22.312-5.014v-4.263
			c0-3.257,1.629-5.013,5.013-5.013c3.259,0,5.015,1.755,5.015,5.013v4.638c9.779,1.003,17.298,3.26,22.812,6.895
			c2.885,2.005,4.39,4.513,4.39,7.646c0,5.264-3.134,7.771-9.278,7.771c-0.877,0-4.513-1.003-10.9-3.259
			c-2.762-0.877-5.018-1.63-7.021-2.131v17.423c10.652,3.76,17.801,6.895,21.559,9.151c7.522,4.763,11.406,10.778,11.406,18.048
			C139.348,133.902,128.318,142.178,106.382,143.432z"/>
	</g>
</g>
</svg>
